# xmcd
#
# Track frame offsets: 
#        150
#        12824
#        24823
#        37084
#        48615
#        64010
#        80218
#        92653
#        102270
#        114149
#
# Disc length: 1720 seconds
#
# Revision: 1
# Processed by: cddbd v1.5.1PL0 Copyright (c) Steve Scherf et al.
# Submitted via: ExactAudioCopy v0.95b1
#
DISCID=7406b60a
DTITLE=Johnny Cash - John R. Cash
DYEAR=1975
DGENRE=Country
TTITLE0=My Old Kentucky Home (Turpentine And Dandelion Wine)
TTITLE1=Hard Times Comin'
TTITLE2=The Lady Came From Baltimore
TTITLE3=Lonesome To The Bone
TTITLE4=The Night They Drove Old Dixie Down
TTITLE5=Clean Your Own Tables
TTITLE6=Jesus Was Our Saviour (Cotton Was Our King)
TTITLE7=Reason To Believe
TTITLE8=Cocaine Carolina (with David Allen Coe)
TTITLE9=Smokey Factory Blues
EXTD=(C)1975 Columbia PC 33370-1\nProduced by Gary Klein
EXTT0=
EXTT1=
EXTT2=
EXTT3=
EXTT4=
EXTT5=
EXTT6=
EXTT7=
EXTT8=
EXTT9=
PLAYORDER=
